<svg width="150" height="150" viewBox="0 0 150 150" fill="none" xmlns="http://www.w3.org/2000/svg">
<g clip-path="url(#clip0_144_170)">
<path d="M75 150C116.421 150 150 116.421 150 75C150 33.5786 116.421 0 75 0C33.5786 0 0 33.5786 0 75C0 116.421 33.5786 150 75 150Z" fill="white" fill-opacity="0.1"/>
<path d="M75 149.5C116.145 149.5 149.5 116.145 149.5 75C149.5 33.8548 116.145 0.5 75 0.5C33.8548 0.5 0.5 33.8548 0.5 75C0.5 116.145 33.8548 149.5 75 149.5Z" stroke="white" stroke-opacity="0.1"/>
<foreignObject x="18" y="17.9995" width="114" height="114"><div xmlns="http://www.w3.org/1999/xhtml" style="backdrop-filter:blur(7px);clip-path:url(#bgblur_1_144_170_clip_path);height:100%;width:100%"></div></foreignObject><path data-figma-bg-blur-radius="14" d="M75 118C98.7482 118 118 98.7477 118 74.9995C118 51.2513 98.7482 31.9995 75 31.9995C51.2518 31.9995 32 51.2513 32 74.9995C32 98.7477 51.2518 118 75 118Z" fill="white" fill-opacity="0.1"/>
<mask id="mask0_144_170" style="mask-type:luminance" maskUnits="userSpaceOnUse" x="65" y="62" width="24" height="25">
<path d="M89 62.9995H65V86.9995H89V62.9995Z" fill="white"/>
</mask>
<g mask="url(#mask0_144_170)">
<path d="M67.5714 84.1713C67.5775 84.5284 67.6815 84.8771 67.8719 85.1793C68.0623 85.4816 68.3319 85.7258 68.6514 85.8856C68.9704 86.0658 69.3306 86.1606 69.6971 86.1606C70.0635 86.1606 70.4238 86.0658 70.7428 85.8856L85.5714 76.7141C85.894 76.5587 86.1663 76.3154 86.3568 76.0121C86.5473 75.7089 86.6483 75.358 86.6483 74.9999C86.6483 74.6417 86.5473 74.2909 86.3568 73.9876C86.1663 73.6843 85.894 73.441 85.5714 73.2856L70.7428 64.1827C70.4238 64.0024 70.0635 63.9077 69.6971 63.9077C69.3306 63.9077 68.9704 64.0024 68.6514 64.1827C68.3319 64.3425 68.0623 64.5867 67.8719 64.889C67.6815 65.1912 67.5775 65.5398 67.5714 65.897V84.1713Z" fill="white"/>
</g>
</g>
<defs>
<clipPath id="bgblur_1_144_170_clip_path" transform="translate(-18 -17.9995)"><path d="M75 118C98.7482 118 118 98.7477 118 74.9995C118 51.2513 98.7482 31.9995 75 31.9995C51.2518 31.9995 32 51.2513 32 74.9995C32 98.7477 51.2518 118 75 118Z"/>
</clipPath><clipPath id="clip0_144_170">
<rect width="150" height="150" fill="white"/>
</clipPath>
</defs>
</svg>
